<svg width="23" height="26" viewBox="0 0 23 26" fill="none" xmlns="http://www.w3.org/2000/svg">
<path fill-rule="evenodd" clip-rule="evenodd" d="M17.8 6.49977C17.8405 6.40772 17.8595 6.30741 17.8555 6.20668H17.8889C17.746 2.73771 14.9307 0 11.5063 0C8.08195 0 5.26665 2.73771 5.12375 6.20668C5.10692 6.30363 5.10691 6.40282 5.1237 6.49977H5.02386C3.38639 6.49977 1.636 7.59954 1.12782 10.5559L0.134045 18.609C-0.679041 24.5218 2.31357 26 6.2209 26H16.8136C20.7096 26 23.6119 23.8595 22.8892 18.609L21.9067 10.5559C21.3082 7.68232 19.6142 6.49977 17.9994 6.49977H17.8ZM15.9634 6.49977C15.928 6.40618 15.9091 6.30694 15.9079 6.20668C15.9079 3.71391 13.9148 1.69312 11.4562 1.69312C8.99766 1.69312 7.00458 3.71391 7.00458 6.20668C7.02141 6.30363 7.02143 6.40282 7.00463 6.49977H15.9634ZM7.79059 13.1935C7.1669 13.1935 6.6613 12.664 6.6613 12.0109C6.6613 11.3578 7.1669 10.8284 7.79059 10.8284C8.41428 10.8284 8.91987 11.3578 8.91987 12.0109C8.91987 12.664 8.41428 13.1935 7.79059 13.1935ZM14.0582 12.0109C14.0582 12.664 14.5638 13.1935 15.1875 13.1935C15.8111 13.1935 16.3167 12.664 16.3167 12.0109C16.3167 11.3578 15.8111 10.8284 15.1875 10.8284C14.5638 10.8284 14.0582 11.3578 14.0582 12.0109Z" fill="#C4C4C4"/>
</svg>
