<svg width="26" height="26" viewBox="0 0 26 26" fill="none" xmlns="http://www.w3.org/2000/svg">
<path fill-rule="evenodd" clip-rule="evenodd" d="M23.9189 9.29114L24.8553 10.2274C25.5965 10.9555 25.9997 11.9438 25.9997 12.984C26.0127 14.0242 25.6096 15.0138 24.8813 15.7536C24.8726 15.7632 24.864 15.7715 24.8553 15.7799C24.8509 15.7841 24.8466 15.7883 24.8423 15.7926L23.9189 16.7159C23.5548 17.0799 23.3467 17.5741 23.3467 18.0955V19.4335C23.3467 21.592 21.5911 23.3487 19.4323 23.3487H18.0928C17.5726 23.3487 17.0785 23.5554 16.7143 23.9195L15.778 24.8557C15.0107 25.6242 14.0093 26 13.008 26C12.0066 26 11.0053 25.6242 10.238 24.87L9.28864 23.9195C8.92451 23.5554 8.43033 23.3487 7.91014 23.3487H6.57065C4.41187 23.3487 2.65623 21.592 2.65623 19.4335V18.0955C2.65623 17.5741 2.44816 17.0799 2.08403 16.7029L1.14769 15.7796C-0.373865 14.2596 -0.386869 11.7747 1.13468 10.2417L2.08403 9.29114C2.44816 8.92705 2.65623 8.43294 2.65623 7.89982V6.57351C2.65623 4.41501 4.41187 2.66091 6.57065 2.66091H7.91014C8.43033 2.66091 8.92451 2.45156 9.28864 2.08747L10.225 1.15126C11.7465 -0.381797 14.2304 -0.381796 15.765 1.13956L16.7143 2.08747C17.0785 2.45156 17.5726 2.66091 18.0928 2.66091H19.4323C21.5911 2.66091 23.3467 4.41501 23.3467 6.57351V7.91412C23.3467 8.43294 23.5548 8.92705 23.9189 9.29114ZM9.65277 17.4838C9.96489 17.4838 10.251 17.3668 10.4591 17.1457L17.1435 10.4635C17.5856 10.0214 17.5856 9.29189 17.1435 8.84979C16.7013 8.40899 15.9861 8.40899 15.5439 8.84979L8.85948 15.5333C8.41732 15.9754 8.41732 16.7036 8.85948 17.1457C9.06756 17.3668 9.35366 17.4838 9.65277 17.4838ZM15.2058 16.339C15.2058 16.976 15.713 17.483 16.3502 17.483C16.9744 17.483 17.4816 16.976 17.4816 16.339C17.4816 15.7163 16.9744 15.208 16.3502 15.208C15.713 15.208 15.2058 15.7163 15.2058 16.339ZM9.66577 8.5249C10.29 8.5249 10.7972 9.0319 10.7972 9.6559C10.7972 10.2942 10.29 10.7999 9.66577 10.7999C9.04155 10.7999 8.52136 10.2942 8.52136 9.6559C8.52136 9.0319 9.04155 8.5249 9.66577 8.5249Z" fill="#C4C4C4"/>
</svg>
