<svg width="38" height="38" viewBox="0 0 38 38" fill="none" xmlns="http://www.w3.org/2000/svg">
<path fill-rule="evenodd" clip-rule="evenodd" d="M19 37.4995C8.784 37.4995 0.5 29.2175 0.5 18.9995C0.5 8.78351 8.784 0.499512 19 0.499512C29.216 0.499512 37.5 8.78351 37.5 18.9995C37.5 29.2175 29.216 37.4995 19 37.4995Z" fill="#F3F3F3"/>
<path d="M26.3521 16.6692L16.8208 26.2479C16.3251 26.7304 15.6736 27 14.9938 27H11.6656C11.4815 27 11.3116 26.929 11.1841 26.8013C11.0566 26.6736 11 26.5033 11 26.3188L11.085 22.9557C11.0991 22.2887 11.3682 21.6643 11.8356 21.196L18.5911 14.4271C18.7044 14.3135 18.9026 14.3135 19.0159 14.4271L21.3853 16.787C21.5411 16.9416 21.7677 17.0424 22.0085 17.0424C22.5325 17.0424 22.9432 16.6167 22.9432 16.1058C22.9432 15.8504 22.844 15.6233 22.6882 15.453C22.6458 15.3963 20.3897 13.1499 20.3897 13.1499C20.2481 13.008 20.2481 12.7667 20.3897 12.6248L21.3386 11.6599C22.2166 10.78 23.6329 10.78 24.511 11.6599L26.3521 13.5047C27.216 14.3703 27.216 15.7894 26.3521 16.6692Z" fill="#808080"/>
</svg>
