<svg width="145" height="140" viewBox="0 0 145 140" fill="none" xmlns="http://www.w3.org/2000/svg">
<path fill-rule="evenodd" clip-rule="evenodd" d="M115.731 42.1185C115.731 59.4437 105.104 74.324 89.9166 80.7927C88.464 81.4114 86.9671 81.9543 85.4354 82.4127C81.4825 83.5997 77.2877 84.2366 72.9415 84.2366C70.5252 84.2366 68.1576 84.0396 65.8507 83.6592C62.522 83.1161 59.3233 82.1905 56.3017 80.9347C49.3576 78.0452 43.3493 73.405 38.8494 67.5757C33.3907 60.5045 30.1523 51.6849 30.1523 42.1183C30.1523 18.856 49.3087 0 72.9415 0C96.572 0 115.73 18.856 115.73 42.1183L115.731 42.1185Z" fill="#F9B004"/>
<path fill-rule="evenodd" clip-rule="evenodd" d="M47.3108 59.7696C47.4854 59.7171 47.6157 59.5565 47.6157 59.3664C47.6203 59.1051 47.6926 58.7774 47.7741 58.4153C47.8369 58.1357 47.9021 57.8379 47.9487 57.5195C48.1349 57.3086 48.4212 57.1366 48.8752 57.0474C49.5851 57.0474 49.4803 57.3155 50.2486 57.0816C50.2718 57.1574 50.2975 57.2259 50.3207 57.2902C50.2509 58.3281 51.4941 58.1679 50.8026 59.5289C50.6558 59.9666 50.3579 60.1133 50.0623 60.5508C49.329 61.6346 49.7363 62.7116 47.3922 60.4041C47.234 60.0926 47.2457 59.9483 47.3107 59.7695L47.3108 59.7696Z" fill="#35393F"/>
<path fill-rule="evenodd" clip-rule="evenodd" d="M109.326 29.2123C88.8688 27.1866 80.559 33.2481 72.509 45.1381C71.352 46.671 70.3091 48.3438 68.8844 49.8401L63.1414 48.77L61.8006 48.3919L62.1359 47.4845L62.1428 47.4594L64.3915 39.5014L64.4334 39.3478C64.4892 39.1164 64.3472 38.885 64.1121 38.8277L62.8272 38.5137C62.8852 36.786 63.1623 36.2499 63.5581 34.5678C63.7467 33.8919 63.8676 33.2184 63.9306 32.5423V32.5331C64.1052 30.5831 63.7724 28.6332 63.1137 26.6832C62.7389 25.762 61.8123 23.702 61.3258 22.3594C60.6811 19.6236 60.6484 16.915 60.965 14.7152C61.9985 14.2067 62.7924 12.976 62.8691 11.7478C63.0019 9.5801 61.7123 8.83772 59.7778 8.64759C58.7 8.53973 58.7512 6.98627 57.3219 7.13055C55.9553 7.22226 55.6643 8.49175 53.9883 8.73931C51.4697 9.47254 50.7293 11.663 52.3635 13.558C53.6463 15.4486 53.9558 15.4783 53.1456 18.8948C52.8618 20.1021 52.5265 21.099 52.1704 21.924C51.4231 23.1819 50.3801 24.4742 49.7658 25.0792C47.1526 27.3752 46.2192 30.7138 45.4218 34.0156L40.8918 32.8447C40.6588 32.7851 40.4192 32.9225 40.3586 33.1518C38.5778 39.8451 36.9483 46.3686 34.9345 52.8945C33.8334 52.9677 32.7348 53.0754 31.6406 53.2151C35.3118 66.487 45.4147 77.1512 58.451 81.7638C61.1607 81.7821 63.875 81.5897 66.459 81.2C66.2657 82.0066 66.0585 82.827 65.8375 83.6588C68.1444 84.0391 70.5118 84.2362 72.9282 84.2362C74.1294 82.1808 75.2188 80.1827 76.0173 78.3037C76.5457 78.1136 77.0159 78.0152 77.3489 78.1159C77.6562 78.2087 82.7033 82.1756 83.7156 82.8843C86.3576 82.2106 88.9021 81.294 91.3186 80.1576C89.8542 78.1663 88.3062 76.1727 86.6766 74.1312C92.2659 70.5681 90.3755 61.8401 90.9972 53.7972C90.9995 53.7767 90.9995 53.756 91.0043 53.7354L102.194 54.8201L103.279 55.0218C104.535 57.9965 104.729 58.4099 106.995 58.1199C110.148 57.7166 110.532 55.0765 110.555 52.1896C110.615 44.4448 104.914 33.8358 109.327 29.2122L109.326 29.2123ZM64.9968 52.702C64.9059 52.5622 64.8268 52.4249 64.7477 52.2828L63.3742 50.3602L66.0954 50.7383L67.6413 51.0064C66.8824 51.6367 66.0164 52.2095 64.9966 52.702H64.9968ZM91.2926 52.0582C92.0469 49.0426 93.9254 46.0089 94.5588 45.0351C96.5141 47.3104 100.04 50.4548 101.639 53.4773C98.5246 53.468 94.3701 52.9173 91.2926 52.0582Z" fill="#12374A"/>
<path fill-rule="evenodd" clip-rule="evenodd" d="M60.9652 13.987C62.4905 13.5615 62.3468 10.888 61.9991 10.3362C61.7118 9.3508 59.8696 9.01838 58.4414 9.90808L58.4463 12.536C59.4292 12.6645 60.9636 12.6559 60.9652 13.987Z" fill="#FEFEFE"/>
<path fill-rule="evenodd" clip-rule="evenodd" d="M57.949 9.90337C56.4828 9.28713 54.1584 8.77358 52.9523 10.2009C51.7675 11.6619 53.1046 13.8497 54.1431 14.2866C55.6177 12.5412 54.5957 12.5348 57.9538 12.531L57.951 10.0213L57.9489 9.90322L57.949 9.90337Z" fill="#FEFEFE"/>
<path fill-rule="evenodd" clip-rule="evenodd" d="M60.5868 68.0981L62.1871 69.1761C62.8813 69.6436 62.9867 69.5673 62.4129 70.3497C62.1244 70.7425 61.7496 71.1468 61.4821 71.4978C60.5925 72.6654 59.8509 74.1251 59.4062 75.5848C59.1745 76.2689 58.8524 76.6862 58.5812 77.183C58.4849 77.36 58.388 77.8031 58.0144 77.4565C57.9477 77.3946 57.9082 77.2423 57.776 76.9705C57.53 76.4649 57.1692 76.2121 56.4962 76.4064C55.9441 76.5662 55.9943 76.5381 55.996 76.0083C55.9968 75.8137 56.0312 75.6256 56.0635 75.4429C56.2192 74.5605 56.5885 73.8208 56.9451 73.2889C57.8474 71.9427 57.7158 72.5475 58.3202 70.763L58.5162 70.1837C58.7472 69.7292 59.1508 68.7498 59.5585 68.1557C59.9979 67.5143 60.0155 67.7133 60.5868 68.0979V68.0981Z" fill="#FEFEFE"/>
<path fill-rule="evenodd" clip-rule="evenodd" d="M62.8933 68.4564C62.3518 68.1966 61.6766 67.8115 61.2536 67.5336C60.6036 67.1067 60.5097 67.175 60.9612 66.3324C61.0591 66.1499 61.1707 65.9588 61.2758 65.7762C61.7721 64.9105 61.5031 64.9527 62.6621 65.3516C63.2011 65.5368 63.8478 65.7937 64.3766 66.0524C65.5603 66.6314 65.52 66.6697 64.6431 67.6302C64.506 67.7801 64.3611 67.9305 64.2198 68.0734C63.5659 68.7333 63.7096 68.8482 62.8933 68.4565V68.4564Z" fill="#22A0B5"/>
<path fill-rule="evenodd" clip-rule="evenodd" d="M60.5794 76.6675C61.2705 77.0982 62.8119 77.8784 62.8275 78.3469C62.8426 78.8155 60.6407 78.8782 60.0878 78.6535C59.5353 78.4291 59.4121 77.9415 59.4121 77.9415L60.5794 76.6676V76.6675Z" fill="#FEFEFE"/>
<path fill-rule="evenodd" clip-rule="evenodd" d="M61.5556 50.041L60.2877 54.9288C59.6759 57.175 59.8676 56.5961 59.2051 59.0301C59.2051 59.1844 61.2472 61.4257 61.6429 62.2053C62.2359 63.3729 61.3323 63.4688 62.5186 64.1989C66.0777 66.3881 66.0777 66.2424 67.2642 64.4908C69.6367 61.5714 68.3021 61.2796 66.226 57.4843C65.0396 55.2946 63.773 52.1719 61.9933 50.4204C61.8303 50.2924 61.6853 50.1658 61.5556 50.0412V50.041Z" fill="#22A0B5"/>
<path fill-rule="evenodd" clip-rule="evenodd" d="M52.4648 35.9763L61.7896 38.2382C62.4503 34.5806 63.7647 30.358 61.9301 26.8065C61.2762 25.541 60.3839 24.501 60.0545 24.4202C60.0199 28.5244 59.1406 32.9835 58.8878 37.2416C58.8817 37.3395 57.9853 37.0383 57.9092 37.0885C59.144 30.8763 56.8872 28.631 53.4003 23.7271C49.7123 26.2813 48.383 26.8826 47.1817 31.541C46.7205 33.3289 46.7262 33.2785 48.5395 33.7392C50.234 34.1695 52.2512 34.595 52.4648 35.9763Z" fill="#22A0B5"/>
<path d="M63.4736 39.5578L52.1381 36.7817C51.3785 37.6212 50.8422 41.8705 50.6284 46.3126C50.4071 50.9097 50.554 55.6583 51.1712 57.0643C51.2096 57.1556 51.2485 57.2232 51.2853 57.2645C52.5926 58.7345 52.064 59.4797 51.6434 60.0326L57.6159 61.5822L63.4736 39.5576V39.5578Z" fill="#C4C4C4"/>
<path d="M45.0301 34.8044L41.0924 33.7861L35.2559 55.7305L46.6536 59.1991C46.6857 59.0109 46.8745 58.4358 46.9194 58.2338C47.0528 57.6342 47.2075 56.9412 47.1067 56.1833C47.0689 55.8965 47.1181 55.4142 46.9454 55.0541C46.6644 54.4698 46.3551 53.826 46.3454 53.0171C46.329 51.6748 45.8659 50.3012 45.6124 48.7727C44.6754 43.129 45.1533 42.1241 45.8748 37.19C45.9148 36.9158 45.9361 36.7204 45.9127 36.7171C44.9167 36.576 44.8505 35.9287 44.9526 35.2322C44.9699 35.1117 44.9934 34.9927 45.0162 34.8765L45.0301 34.8046V34.8044Z" fill="#C4C4C4"/>
<path fill-rule="evenodd" clip-rule="evenodd" d="M46.7323 37.3605C46.2613 40.3306 45.712 42.8694 46.0703 45.9422C46.3297 48.1678 47.1475 54.642 48.2821 56.3161H50.0624C49.6517 54.1751 49.5686 50.1558 49.7554 46.2721C49.8953 43.3641 50.1952 40.5114 50.6321 38.5428C49.3397 37.7845 48.1185 37.701 46.7323 37.3604V37.3605Z" fill="#F8DEAA"/>
<path fill-rule="evenodd" clip-rule="evenodd" d="M46.9741 36.0099C47.768 36.2103 48.546 36.5212 49.2814 36.7748C49.6379 36.8975 49.9844 37.0069 50.3179 37.0834C51.3143 37.3122 51.9247 36.2065 50.4667 35.6378C50.2243 35.5431 49.9769 35.4383 49.7269 35.3315C48.8832 34.9698 48.0116 34.5817 47.2131 34.4626C46.028 34.2855 45.7069 35.6907 46.9741 36.0101V36.0099Z" fill="#22A0B5"/>
<path fill-rule="evenodd" clip-rule="evenodd" d="M94.8274 43.8526C88.0814 49.8054 90.113 57.4116 89.5871 65.1462C89.2487 70.1208 87.7731 72.6485 85.3534 74.0302C84.4549 74.9238 85.8727 76.0854 87.4673 78.0377C88.3192 79.0827 89.2853 80.242 90.2001 81.3351C88.7475 81.9538 87.2507 82.4967 85.7189 82.9551C84.2589 81.8299 81.9329 79.7536 80.5834 78.8351C75.2572 74.7657 77.2639 78.6106 70.5408 79.5706C68.0524 79.9785 65.0215 79.6096 62.7773 76.7133C63.3081 76.3648 64.9748 75.7439 65.6989 74.5961C66.6975 73.0127 66.6744 73.0378 67.2749 71.0925C67.5007 70.3593 67.3331 69.5572 67.6753 68.9752C68.1898 68.1021 69.2699 67.4813 69.8891 66.3677C72.4567 61.7506 68.7634 54.8105 68.2069 53.0736C71.1688 51.1059 73.9848 47.2472 73.9355 46.0877C73.9318 45.999 75.2603 45.8813 74.8525 48.7886C78.0149 45.3051 77.9448 41.9054 78.4882 40.0943C78.3525 41.1309 80.5734 41.8463 80.1865 44.2005C82.8867 41.5771 82.1779 38.663 84.0377 35.7345C84.509 38.8282 84.8853 38.7317 84.8251 39.9435C87.0669 37.3724 88.3132 36.1477 88.1389 33.3977C89.9054 35.7915 89.9466 38.5603 89.693 39.0565C90.619 38.638 93.6037 34.6408 93.8283 31.2039C94.6365 33.8616 94.0256 36.1856 93.9281 36.1856C95.4293 35.5908 96.4321 34.7365 99.4361 30.9585C98.0813 40.2893 92.7924 40.6836 94.8273 43.8525L94.8274 43.8526Z" fill="#F8DEAA"/>
<path fill-rule="evenodd" clip-rule="evenodd" d="M101.209 33.2315C101.634 30.3316 104.332 30.3637 107.001 30.1943C106.55 30.6246 104.887 31.4146 103.824 32.3415C102.441 33.5468 103.133 34.3025 103.798 33.7508C104.543 33.1335 105.594 33.9956 104.174 34.7839C102.926 35.4758 100.972 34.8559 101.209 33.2315Z" fill="#F8DEAA"/>
<path fill-rule="evenodd" clip-rule="evenodd" d="M106.897 53.6704C107.011 53.2491 107.331 52.9618 107.809 52.8915C108.818 52.6945 108.899 53.138 108.943 53.8747C108.977 54.4535 109.1 54.6607 108.508 54.1581C108.342 54.0169 108.326 53.9466 108.29 53.8692C108.094 53.4479 107.798 53.6104 107.79 54.0054C107.785 54.2945 107.881 54.5873 107.964 54.8802C108.257 55.4194 108.616 55.188 108.816 54.985C108.987 54.8102 109.121 54.7791 109.203 54.9968C109.748 56.4334 108.95 56.8905 107.381 55.1862C106.695 54.5246 106.69 54.4355 106.897 53.6706V53.6704Z" fill="#F8DEAA"/>
<path fill-rule="evenodd" clip-rule="evenodd" d="M105.366 56.7459C104.698 56.0763 104.85 55.0681 105.327 54.3103C105.619 53.8453 106.208 53.4001 106.197 54.3442C106.193 54.7719 106.194 55.2679 106.158 55.7285C106.131 56.0737 106.083 56.3993 105.995 56.6616C105.83 57.1551 105.729 57.1088 105.366 56.7461V56.7459Z" fill="#F8DEAA"/>
<path fill-rule="evenodd" clip-rule="evenodd" d="M100.506 39.7935C98.3148 38.3036 98.3219 36.5873 100.338 36.8691C100.573 35.8199 101.125 35.537 101.745 35.7485C103.405 36.3132 102.971 37.9026 102.408 39.1834C102.026 40.049 101.414 40.5924 100.506 39.7937L100.506 39.7935Z" fill="#F8DEAA"/>
<path fill-rule="evenodd" clip-rule="evenodd" d="M106.442 49.455C105.396 47.2457 103.558 43.043 103.135 41.2007C102.891 40.1405 103.186 40.5441 103.615 39.7222C103.713 39.5342 103.797 39.3246 103.866 39.1032C104.189 38.0601 104.101 38.3375 105.445 38.2435C106.048 38.2015 106.598 38.2318 107.333 38.5926C107.978 40.0968 107.583 41.7302 107.375 43.309C107.116 45.2677 107.449 46.0719 107.92 47.8949C108.21 49.0161 108.411 50.145 107.877 50.5472C107.01 51.2008 106.701 50.0015 106.442 49.455Z" fill="#F8DEAA"/>
<path fill-rule="evenodd" clip-rule="evenodd" d="M98.9021 40.0391C100.116 40.8648 100.49 41.3549 100.958 42.7322L102.698 47.0454C103.073 47.9735 105.074 51.962 104.847 52.3662C104.314 53.3152 103.45 52.4643 103.076 51.9374C102.194 50.6935 100.988 48.3803 100.09 47.2046C94.938 46.4843 96.9086 40.979 98.9018 40.0391H98.9021Z" fill="#F8DEAA"/>
<path fill-rule="evenodd" clip-rule="evenodd" d="M102.389 41.3213C102.667 41.8045 102.877 42.3976 103.125 43.0821C103.453 43.9828 103.72 44.9418 104.028 45.8939C104.211 46.4584 105.889 50.0583 106.439 51.4851C106.598 51.8974 106.074 52.2171 105.827 51.8006C104.864 50.1771 103.811 47.9068 103.152 46.1185C102.698 44.8828 102.304 43.498 101.795 42.4345C101.678 42.1906 101.58 42.0337 101.508 41.9212C101.128 41.3324 101.999 40.6412 102.389 41.3211L102.389 41.3213Z" fill="#F8DEAA"/>
<path d="M106.438 42.5783C106.55 42.3231 106.649 41.3255 106.025 40.5963C105.271 39.7133 104.206 39.943 104.256 41.3255C104.269 41.7184 104.385 42.12 104.582 42.4731C105.11 43.4171 105.841 43.5723 106.438 42.5781V42.5783Z" fill="#12374A"/>
<path fill-rule="evenodd" clip-rule="evenodd" d="M58.5812 80.9327C57.7967 80.9578 57.0308 80.9578 56.2882 80.935C49.3442 78.0454 43.3359 73.4053 38.8359 67.576C39.404 67.2805 40.0301 67.0881 40.8031 67.0443C41.7109 66.9939 41.7458 67.0192 42.4906 67.4362C43.2682 67.867 44.0574 68.1557 44.8489 68.1947C46.376 68.2703 45.801 67.576 46.2851 69.3723C46.8835 71.5906 48.1803 74.5007 49.4815 75.5706C51.2461 77.0211 52.6544 76.8904 54.4935 77.1722C54.8404 78.8884 57.0657 79.3194 57.65 79.2596L58.5812 80.9324V80.9327Z" fill="#F8DEAA"/>
<path fill-rule="evenodd" clip-rule="evenodd" d="M50.3281 57.0312C49.0505 57.2672 49.4536 56.7253 47.9791 57.4788C47.8463 58.1441 47.7384 58.5789 47.5998 59.0143C47.1924 60.2958 46.8849 60.0005 47.8872 60.8847C49.2504 61.906 49.2017 62.2792 49.9715 60.8498L50.5522 60.0759C51.1879 58.9546 51.2958 58.8684 50.5291 57.8227L50.3281 57.0312Z" fill="#F8DEAA"/>
<path d="M90.3701 51.7998C90.6796 51.8868 90.9869 51.9739 91.2918 52.0588C91.1498 52.6223 91.0475 53.186 91.0032 53.7361L89.9789 53.5985C85.6327 53.4978 79.65 52.7348 75.2619 52.1642L71.3581 51.6555L67.6406 51.007C68.0898 50.6359 68.5018 50.2441 68.8836 49.8408L68.9884 49.8615L75.5367 51.0759C80.7117 51.816 85.123 51.862 90.3701 51.8001V51.7998Z" fill="#12374A"/>
<path fill-rule="evenodd" clip-rule="evenodd" d="M58.5339 18.3059C58.6619 18.3059 58.7412 18.3609 58.8482 18.3792C58.9925 18.3539 59.1322 18.2599 59.3602 18.3287C59.6699 18.4204 59.991 18.6106 60.2424 18.7824C60.289 18.3562 60.2914 17.8613 60.2773 17.3892C60.2424 16.099 60.2309 15.6042 60.2285 15.4554C60.2054 15.5171 60.1774 15.5789 60.0749 15.6455C59.9772 15.6959 59.4371 15.815 59.2741 15.3408C59.2228 15.3545 59.1716 15.3705 59.1182 15.3888L59.06 15.2262C59.5512 15.0519 60.0028 15.1139 60.2239 15.1644C60.231 15.0245 60.3054 14.8068 59.5722 14.8068C58.8108 14.8801 58.8715 15.4072 59.0368 16.0419C59.1089 16.3214 59.1555 16.5368 59.1833 16.7568C59.2928 17.6299 59.386 17.7629 58.5129 17.8522C57.9681 17.9048 57.6469 17.5796 58.3429 17.5749C59.1112 17.5726 58.9925 17.5772 58.8598 16.8234C58.8179 16.5874 58.7667 16.3467 58.7179 16.1016C58.6458 15.7351 58.6015 15.3775 58.6574 15.1025C58.783 14.3579 59.7142 14.5183 60.1077 14.2089C60.1776 14.1539 60.31 14.0439 60.1216 13.7988C59.3347 12.6553 58.392 13.5742 58.2452 13.7209L57.9961 13.2741C57.2559 13.2762 56.3666 13.1295 56.0686 13.4231C55.9942 13.4964 55.4984 14.28 55.715 14.2089C56.3318 14.0049 57.3933 13.7805 58.306 14.5847C57.738 15.3615 57.5377 14.0439 55.6265 14.8825C55.48 16.6356 55.1842 17.8018 55.1866 19.5548C55.1889 21.7429 54.1934 23.3322 54.1934 23.3322C54.9306 24.4979 58.1609 29.4991 58.6657 30.2343C58.7761 29.4181 59.7572 23.0232 59.4883 21.4474C58.229 21.5871 56.4762 21.0417 55.5822 19.7151C56.1665 20.1779 56.8184 20.7208 58.1544 20.8654C59.0368 20.9868 59.7071 20.3705 60.068 19.5548C60.1239 19.4264 60.1657 19.273 60.1984 19.0987C59.9051 19.062 59.5606 19.0024 59.3604 18.9154C59.2417 18.8627 58.995 18.7413 58.8716 18.7137C58.7506 18.7367 58.4968 18.865 58.3757 18.9177C57.9825 19.092 57.0138 19.1515 57.0138 19.1515C57.0138 19.1515 57.7214 18.5259 58.3757 18.3313C58.4363 18.313 58.4874 18.306 58.534 18.306L58.5339 18.3059ZM57.8821 15.2721L57.8727 15.2698L57.8798 15.2768C57.8193 15.3754 57.831 15.4717 57.6284 15.5792C57.4911 15.6342 56.7323 15.7695 56.5226 15.215C56.397 15.2355 56.2713 15.2677 56.1478 15.3112L56.0873 15.1487C56.9346 14.8507 57.9217 15.1051 57.9241 15.1051L57.8823 15.2724L57.8821 15.2721Z" fill="#F8DEAA"/>
<path fill-rule="evenodd" clip-rule="evenodd" d="M59.6391 19.3185C59.1482 19.7663 58.1856 19.6165 57.9492 19.3222C58.6264 19.1966 58.9562 19.0683 59.6391 19.3185Z" fill="#12374A"/>
<path d="M47.7422 140V128.783H53.0727C55.5498 128.783 56.8995 130.431 56.8995 132.399C56.8995 134.35 55.5327 136.014 53.0727 136.014H50.1684V140H47.7423L47.7422 140ZM95.343 140L94.6423 138.1H89.7563L89.0386 140H86.2711L90.6788 128.783H93.7198L98.1105 140H95.343ZM92.1993 131.171L90.4225 135.998H93.9762L92.1993 131.171ZM75.9172 140V138.066L81.2986 130.885H75.9172V128.783H84.4762V130.7L79.0947 137.898H84.5959V140H75.917H75.9172ZM64.76 140V138.066L70.1416 130.885H64.76V128.783H73.3191V130.7L67.9377 137.898H73.4388V140H64.7599H64.76ZM59.4462 140V128.783H61.8723V140H59.4462ZM54.4223 132.399C54.4223 131.457 53.7047 130.885 52.7477 130.885H50.1682V133.912H52.7477C53.7047 133.912 54.4223 133.324 54.4223 132.399Z" fill="#2F5E8E"/>
<path fill-rule="evenodd" clip-rule="evenodd" d="M39.1149 119.951H44.4957V95.8339H39.1149V105.75H30.0127V95.8339H24.6321V119.951H30.0127V109.923H39.1149V119.951ZM18.4462 114.281L18.3229 114.359C17.7756 114.732 17.0492 115.017 16.4186 115.216C15.5669 115.485 14.661 115.664 13.7681 115.721C13.5728 115.733 13.3772 115.74 13.1815 115.74C11.0353 115.74 9.15804 115.059 7.63396 113.559C6.05462 112.005 5.41832 110.041 5.41832 107.874C5.41832 105.732 6.04104 103.767 7.54968 102.197C9.02837 100.659 10.9345 100.008 13.0674 100.008C14.1312 100.008 15.171 100.17 16.1745 100.519C16.5906 100.663 17.0089 100.811 17.4164 100.978C17.663 101.079 17.9563 101.202 18.1752 101.354L18.3173 101.448L19.2395 96.6279L18.8078 96.4267L18.8007 96.423C18.5209 96.2798 18.1963 96.1691 17.8959 96.0764C17.4505 95.9392 16.9933 95.8289 16.5362 95.7369C15.4177 95.5115 14.2474 95.3853 13.1055 95.3853C9.5205 95.3853 6.34546 96.489 3.74528 98.9358C1.14896 101.379 0 104.39 0 107.912C0 111.448 0.933308 114.755 3.66022 117.178C6.33882 119.559 9.6707 120.438 13.2198 120.438C14.4472 120.438 15.6489 120.304 16.8382 120.002C17.3099 119.882 17.7855 119.757 18.2497 119.611C18.4806 119.538 18.7653 119.448 18.9782 119.332L19.5021 119.037L18.4464 114.281L18.4462 114.281ZM106.003 110.464L109.552 100.875L113.1 110.464H106.003ZM102.455 119.951L103.07 118.39L104.481 114.579H114.623L116.033 118.39L116.648 119.951H122.373L112.344 95.8341H106.759L96.7308 119.951H102.455ZM132.275 99.9704H133.272C134.8 99.9704 136.64 100.241 137.611 101.544C138.085 102.18 138.26 102.942 138.26 103.72C138.26 106.695 136.079 107.658 133.348 107.658H132.275V99.9704ZM126.894 119.951H132.275V111.083H133.135L138.457 119.951H145L138.769 110.329L139.772 110.025C142.537 108.777 143.741 106.326 143.755 103.382C143.77 100.059 141.79 97.7047 138.676 96.5947C136.95 95.9792 134.905 95.8341 133.082 95.8341H126.894V119.951H126.894ZM85.1001 100.158H86.0209C87.1609 100.158 88.3345 100.444 89.2564 101.126C90.6717 102.172 91.123 103.844 91.123 105.517C91.123 107.215 90.5483 108.842 89.0243 109.77C88.2268 110.255 87.2947 110.464 86.363 110.464H85.1001V100.158ZM79.7193 119.951H85.1001V114.601H86.477C88.8248 114.601 91.299 114.003 93.1823 112.574C95.634 110.713 96.5037 107.912 96.5037 104.956C96.5037 100.976 94.4803 97.7321 90.5984 96.4486C89.1093 95.9562 87.3153 95.8342 85.7546 95.8342H79.7193V119.951V119.951ZM57.083 113.767C55.5728 112.112 54.9509 110.08 54.9509 107.874C54.9509 105.698 55.5853 103.676 57.0847 102.054C58.5321 100.487 60.3596 99.7086 62.5106 99.7086C64.6736 99.7086 66.4944 100.495 67.9684 102.049C69.4996 103.664 70.1418 105.684 70.1418 107.874C70.1418 110.112 69.5256 112.147 67.9705 113.809C66.5004 115.379 64.6756 116.114 62.5108 116.114C60.3609 116.114 58.522 115.344 57.083 113.767ZM53.548 98.9309C51.0174 101.391 49.9489 104.433 49.9489 107.912C49.9489 111.391 50.9696 114.556 53.5444 117.001C56.0446 119.375 59.0859 120.438 62.5464 120.438C66.0049 120.438 69.0183 119.351 71.5115 116.964C74.0861 114.5 75.1439 111.419 75.1439 107.912C75.1439 104.418 74.0587 101.392 71.5103 98.9321C69.0251 96.5333 66.024 95.3853 62.5464 95.3853C59.0551 95.3853 56.0373 96.5111 53.548 98.9309Z" fill="#2F5E8E"/>
</svg>
