<svg width="29" height="26" viewBox="0 0 29 26" fill="none" xmlns="http://www.w3.org/2000/svg">
<path d="M7.43309 3.35236C9.72066 1.26083 12.5726 0.143379 15.4633 4.72619e-06L15.4633 11.4461L7.43309 3.35236Z" fill="#FAAF04"/>
<path d="M16.7405 0C19.6312 0.143356 22.4832 1.26081 24.7708 3.35236L16.7405 11.4462L16.7405 0Z" fill="#FAAF04"/>
<path d="M25.6739 4.2626C27.7491 6.5683 28.8578 9.44289 29 12.3565L17.6435 12.3565L25.6739 4.2626Z" fill="#FAAF04"/>
<path d="M29 13.6438C28.8577 16.5573 27.749 19.4318 25.6739 21.7374L17.6438 13.6438H29Z" fill="#FAAF04"/>
<path d="M24.7708 22.6476C22.4832 24.7392 19.6312 25.8566 16.7405 26L16.7405 14.5538L24.7708 22.6476Z" fill="#FAAF04"/>
<path d="M15.4633 26C12.5727 25.8566 9.72067 24.7392 7.43309 22.6476L15.4633 14.5539V26Z" fill="#FAAF04"/>
<path d="M6.52999 21.7374C4.45488 19.4318 3.34619 16.5573 3.20393 13.6438H14.5602L6.52999 21.7374Z" fill="#FAAF04"/>
<path d="M0 11.0939H11.3565L3.32607 3C1.25091 5.3057 0.14222 8.18029 0 11.0939Z" fill="#FAAF04"/>
</svg>
