<svg width="26" height="26" viewBox="0 0 26 26" fill="none" xmlns="http://www.w3.org/2000/svg">
<path fill-rule="evenodd" clip-rule="evenodd" d="M13 0C5.8203 0 0 5.8203 0 13C0 20.1797 5.8203 26 13 26C20.1797 26 26 20.1797 26 13C26 5.8203 20.1797 0 13 0ZM13 13.4548C15.2288 13.4548 17.0146 11.6179 17.0146 9.32702C17.0146 7.03614 15.2288 5.2 13 5.2C10.7719 5.2 8.9854 7.03614 8.9854 9.32702C8.9854 11.6179 10.7719 13.4548 13 13.4548ZM6.93333 18.1284C6.93333 20.25 9.71063 20.7999 13 20.7999C16.2719 20.7999 19.0667 20.2695 19.0667 18.1471C19.0667 16.0255 16.2901 15.4756 13 15.4756C9.72808 15.4756 6.93333 16.006 6.93333 18.1284Z" fill="#C4C4C4"/>
</svg>
